# xmcd
#
# Track frame offsets:
#	150
#	63388
#	75496
#	89528
#	106255
#	114690
#	131638
#	145147
#	154799
#	168185
#	187541
#	202117
#	217601
#	232814
#	244648
#
# Disc length: 3401 seconds
#
# Revision: 1
# Processed by: cddbd v1.5.2PL0 Copyright (c) Steve Scherf et al.
# Submitted via: audiograbber 1.83.01
#
DISCID=ba0d470f
DTITLE=The NY Ragtime Orchestra  - Rhapsody In Blue Live No. 2
DYEAR=1900
DGENRE=Blues
TTITLE0=Rhapsody In Blue [Live]
TTITLE1=I Got Plenty Of Nothing [Live]
TTITLE2=The Man I Love [Live]
TTITLE3=Swanee [Live]
TTITLE4=A Red Headed Woman [Live]
TTITLE5=It Ain't Necessarily So [Live]
TTITLE6=Summertime [Live]
TTITLE7=A Woman Is A Something Thing [Live]
TTITLE8=Kitten On The Keys [Live]
TTITLE9=In The Orient [Live]
TTITLE10=Thomas Edison-Miracle Man [Live]
TTITLE11=Alabama Jubilee [Live]
TTITLE12=Sox-O-Phun [Live]
TTITLE13=Lassus Trombone [Live]
TTITLE14=Old Folks At Home [Live]
EXTD=
EXTT0=
EXTT1=
EXTT2=
EXTT3=
EXTT4=
EXTT5=
EXTT6=
EXTT7=
EXTT8=
EXTT9=
EXTT10=
EXTT11=
EXTT12=
EXTT13=
EXTT14=
PLAYORDER=
